<?xml version="1.0" encoding="UTF-8"?>
<svg id="bars" xmlns="http://www.w3.org/2000/svg" viewBox="0 0 124 124">
  <defs>
    <style>
      .cls-1 {
        fill: none;
        stroke-width: 5px;
      }

      .cls-1, .cls-2 {
        stroke: #fff;
        stroke-miterlimit: 10;
      }

      .cls-2 {
        fill: #fff;
        stroke-width: 2.5px;
      }
    </style>
  </defs>
  <path class="cls-2" d="m19.49,13h86.84s5.66.82,5.66,5.71c0,5.76-5.66,5.71-5.66,5.71H19.55c-3.69,0-6.85-2.39-7.19-5.56,0-.05,0-.1-.01-.15-.42-4.89,5.25-5.71,7.14-5.71Z"/>
  <path class="cls-2" d="m18.47,56.63h86.96s5.67.82,5.67,5.71c0,5.76-5.67,5.71-5.67,5.71H18.53c-3.69,0-6.86-2.39-7.19-5.56,0-.05,0-.1-.01-.15-.42-4.89,5.26-5.71,7.15-5.71Z"/>
  <path class="cls-2" d="m19.37,99.59h86.96s5.67.82,5.67,5.71c0,5.76-5.67,5.71-5.67,5.71H19.43c-3.69,0-6.86-2.39-7.19-5.56,0-.05,0-.1-.01-.15-.42-4.89,5.26-5.71,7.15-5.71Z"/>
  <rect class="cls-1" x="2.5" y="2.5" width="119" height="119"/>
</svg>